<?xml version="1.0" standalone="no"?>
<!DOCTYPE svg PUBLIC "-//W3C//DTD SVG 20010904//EN"
 "http://www.w3.org/TR/2001/REC-SVG-20010904/DTD/svg10.dtd">
<svg version="1.0" xmlns="http://www.w3.org/2000/svg"
 width="669.000000pt" height="669.000000pt" viewBox="0 0 669.000000 669.000000"
 preserveAspectRatio="xMidYMid meet">
<metadata>
Created by potrace 1.14, written by Peter Selinger 2001-2017
</metadata>
<g transform="translate(0.000000,669.000000) scale(0.100000,-0.100000)"
fill="#000000" stroke="none">
<path d="M5526 5888 c-28 -25 -38 -70 -25 -105 10 -26 2 -28 -51 -12 -79 23
-135 9 -185 -48 -11 -14 -32 -27 -45 -28 -85 -10 -126 -60 -136 -167 -4 -42
-2 -48 23 -66 20 -14 29 -30 31 -52 6 -83 67 -159 150 -190 67 -25 110 -22
239 18 73 23 141 91 169 169 18 50 17 135 0 178 -8 19 -12 34 -8 34 23 -4 32
4 32 26 0 14 7 42 15 62 20 47 14 63 -35 93 -23 14 -43 35 -47 48 -7 29 -49
62 -79 62 -12 0 -34 -10 -48 -22z"/>
<path d="M911 5702 c-19 -10 -43 -35 -54 -55 -18 -34 -21 -58 -31 -237 -3 -47
-8 -125 -11 -175 -4 -49 -8 -116 -9 -148 -2 -31 -6 -61 -10 -65 -4 -4 -104 -7
-222 -7 l-214 0 -30 -31 c-16 -18 -32 -43 -34 -55 -9 -36 -16 -80 -22 -119 -2
-19 -6 -46 -9 -60 -3 -14 -7 -41 -10 -60 -3 -19 -7 -46 -10 -60 -2 -13 -7 -42
-10 -65 -3 -22 -10 -62 -15 -90 -5 -27 -12 -68 -15 -90 -3 -22 -14 -92 -25
-155 -11 -63 -22 -133 -25 -155 -4 -22 -9 -53 -12 -70 -2 -16 -6 -39 -8 -50
-1 -11 -5 -36 -9 -55 -7 -42 -16 -104 -22 -145 -2 -16 -9 -55 -14 -85 -12 -68
-22 -129 -26 -155 -1 -11 -3 -20 -4 -20 -1 0 -3 -9 -4 -20 -3 -21 -14 -95 -21
-136 -2 -13 -6 -40 -9 -59 -3 -19 -7 -44 -10 -55 -21 -109 -17 -157 17 -197
12 -14 33 -29 47 -34 14 -4 413 -8 887 -9 l862 0 30 -23 c17 -12 34 -22 40
-22 5 0 11 -5 13 -10 5 -17 69 -16 136 4 15 4 47 10 122 22 117 19 392 24 500
11 60 -8 193 -31 250 -45 33 -7 53 -8 65 -2 3 1 8 3 13 4 4 0 23 13 43 29 39
30 53 32 269 43 138 6 170 8 370 18 63 4 158 9 210 11 52 3 129 7 170 10 41 2
129 7 195 10 66 3 152 8 190 10 39 3 124 7 190 11 66 3 129 7 140 9 11 1 25 3
32 4 6 0 18 8 27 16 24 25 27 1 4 -41 -11 -21 -21 -41 -21 -44 1 -8 -16 -49
-54 -135 -42 -96 -56 -128 -57 -135 -1 -3 -17 -41 -35 -85 -18 -44 -34 -84
-36 -90 -1 -5 -5 -17 -8 -25 -45 -118 -68 -259 -70 -430 -2 -125 1 -165 15
-205 9 -27 18 -45 18 -40 1 6 5 1 9 -10 5 -11 4 -27 -2 -36 -16 -26 -2 -48 33
-47 37 1 44 -5 47 -40 1 -15 5 -55 8 -89 5 -43 4 -63 -4 -63 -6 0 -11 -17 -11
-37 -1 -36 -5 -41 -83 -93 -45 -30 -89 -64 -99 -75 -16 -19 -28 -20 -160 -18
-693 10 -855 11 -864 5 -11 -7 -39 -93 -50 -152 -9 -47 -12 -276 -4 -342 l5
-53 -317 0 c-205 0 -318 -4 -318 -10 0 -12 3898 -17 3905 -4 10 15 -35 18
-380 18 -192 0 -359 0 -370 0 -17 1 -20 9 -23 55 -3 52 -2 54 33 75 20 11 48
23 63 26 15 3 38 7 52 10 54 11 152 68 208 123 93 90 123 154 196 414 43 154
84 241 140 298 17 17 14 46 -3 35 -5 -2 -34 -7 -67 -11 -65 -7 -165 -35 -236
-67 -34 -14 -48 -27 -49 -41 -1 -12 -3 -52 -4 -91 -5 -95 -8 -125 -15 -125 -4
0 -16 24 -29 53 -12 28 -29 66 -38 84 l-16 32 -27 -19 c-46 -33 -145 -145
-178 -201 -17 -30 -32 -49 -33 -44 -5 33 -22 519 -21 610 0 28 3 61 7 75 12
43 12 84 2 110 -5 14 -11 66 -12 115 -2 50 -5 113 -8 140 -14 141 -23 611 -14
740 3 45 -11 166 -27 238 -15 65 -93 235 -124 270 -14 15 -14 19 1 35 10 10
17 23 17 29 0 19 -78 111 -110 129 -16 10 -30 21 -30 25 0 3 19 11 43 18 47
14 97 56 97 81 0 17 -33 53 -41 46 -2 -2 -16 -6 -31 -10 -23 -5 -28 -3 -28 13
0 11 -4 22 -10 26 -11 7 -17 -12 65 210 37 99 73 199 82 222 12 32 14 72 11
175 -4 119 -7 138 -30 183 -36 69 -83 113 -153 146 -33 15 -69 39 -79 54 -19
26 -21 26 -105 20 -64 -5 -90 -11 -101 -24 -15 -16 -17 -17 -45 -1 -88 50
-116 66 -185 105 -41 24 -95 51 -120 60 -69 26 -105 43 -102 49 14 33 -35 69
-63 46 -9 -7 -15 -8 -15 -2 0 5 -15 19 -32 30 -18 11 -62 41 -98 66 -36 26
-99 70 -140 98 -41 28 -77 54 -80 58 -3 4 -13 9 -22 13 -10 3 -18 14 -18 22 0
26 -61 74 -87 70 -7 -2 -22 -3 -34 -4 -18 -1 -79 -56 -77 -70 2 -18 -4 -21
-23 -11 -40 22 -67 24 -304 23 -226 0 -354 -5 -470 -19 -118 -14 -184 -23
-215 -29 -14 -2 -36 -7 -50 -10 -14 -2 -39 -7 -56 -10 -91 -14 -301 -87 -374
-128 -135 -77 -189 -93 -182 -54 4 21 -7 22 -22 1 -18 -24 -56 -9 -117 47 -72
66 -127 105 -197 137 -31 15 -59 27 -62 27 -3 1 -38 11 -79 24 -85 26 -101 30
-156 37 -22 3 -49 7 -59 11 -11 3 -34 7 -50 9 -17 2 -47 6 -66 9 -19 4 -199 9
-400 11 -345 5 -367 4 -399 -14z m3491 -268 c51 -42 130 -106 174 -142 81 -65
81 -66 63 -86 -23 -25 -13 -37 38 -46 23 -4 37 -11 35 -19 -5 -24 22 -86 56
-129 45 -57 144 -131 231 -172 39 -19 71 -37 71 -40 0 -3 -15 -21 -34 -41 -72
-75 -78 -166 -20 -285 37 -79 45 -157 22 -221 -9 -24 -9 -41 -2 -61 11 -28 10
-29 -134 -126 -101 -67 -148 -93 -153 -85 -4 7 -11 33 -15 58 -4 25 -8 51 -9
56 -6 25 -37 192 -39 205 -1 8 -5 31 -9 50 -4 19 -9 49 -12 65 -3 17 -10 55
-16 85 -6 30 -12 67 -14 81 -3 14 -9 48 -15 75 -7 27 -14 63 -16 79 -2 17 -6
41 -9 55 -3 14 -10 52 -16 85 -15 86 -43 140 -81 156 -18 7 -62 12 -105 11
-40 -1 -73 1 -74 5 0 5 -2 15 -4 24 -1 9 -6 61 -9 115 -14 212 -23 301 -31
314 -3 6 3 10 14 10 12 0 62 -34 113 -76z m660 -1506 c3 -24 1 -52 -3 -63 -14
-36 -98 -331 -104 -366 -9 -44 -13 -67 -19 -104 -18 -112 -51 -216 -52 -167
-1 9 -8 55 -17 102 -9 47 -19 99 -21 115 -3 17 -8 41 -11 55 -2 14 -7 39 -10
55 -9 48 -25 137 -32 173 -3 20 -2 32 5 32 25 0 64 50 69 88 5 39 8 41 92 80
47 23 89 41 92 41 4 1 9 -18 11 -41z m293 -959 c1 -13 13 -84 21 -119 5 -22
52 -251 58 -280 2 -14 14 -71 25 -128 11 -56 23 -117 27 -135 3 -17 7 -36 8
-42 3 -11 16 -72 20 -95 7 -35 16 -87 22 -115 11 -56 13 -70 18 -100 9 -51 16
-89 22 -115 3 -14 8 -36 10 -50 2 -14 7 -36 10 -50 3 -14 8 -36 10 -50 9 -54
14 -86 19 -110 3 -14 8 -41 11 -60 3 -19 7 -37 9 -40 7 -12 18 -97 17 -126 -2
-26 3 -33 23 -38 14 -4 25 -12 26 -19 3 -38 18 -174 21 -185 1 -4 -3 -16 -8
-27 -6 -11 -10 -32 -9 -48 2 -24 -8 -35 -79 -83 -45 -31 -91 -68 -103 -82
l-22 -26 -10 24 c-9 25 -7 139 4 195 4 17 14 49 25 71 l18 41 -34 17 c-19 9
-39 16 -44 16 -5 0 -21 5 -37 11 -197 80 -339 118 -457 124 -55 3 -101 7 -103
9 -2 2 -6 37 -9 77 -3 41 -7 88 -9 104 -2 17 -4 34 -4 39 -1 4 -8 5 -17 2 -14
-5 -15 5 -10 91 2 54 5 99 5 100 1 1 20 1 42 0 54 -3 78 17 54 44 -9 9 -23 15
-30 13 -11 -4 -10 3 1 36 8 24 22 56 30 73 12 22 13 35 5 53 -5 13 -8 33 -6
46 19 97 24 148 24 248 0 63 2 125 5 136 3 17 188 297 223 339 5 6 42 60 83
122 69 104 94 128 95 92z m467 -2147 c-21 -6 -25 4 -11 30 l13 23 6 -25 c4
-17 2 -26 -8 -28z"/>
</g>
</svg>
